<svg xmlns="http://www.w3.org/2000/svg" viewBox="-50 -50 100 100">
  <g fill="#1d2a1c">
    <g transform="rotate(0)"><path d="M0,-44 C 5.4,-30 5.4,-14 1.6,-2 C 0.8,-0.6 -0.8,-0.6 -1.6,-2 C -5.4,-14 -5.4,-30 0,-44 Z"></path></g>
    <g transform="rotate(60)"><path d="M0,-44 C 5.4,-30 5.4,-14 1.6,-2 C 0.8,-0.6 -0.8,-0.6 -1.6,-2 C -5.4,-14 -5.4,-30 0,-44 Z"></path></g>
    <g transform="rotate(120)"><path d="M0,-44 C 5.4,-30 5.4,-14 1.6,-2 C 0.8,-0.6 -0.8,-0.6 -1.6,-2 C -5.4,-14 -5.4,-30 0,-44 Z"></path></g>
    <g transform="rotate(180)"><path d="M0,-44 C 5.4,-30 5.4,-14 1.6,-2 C 0.8,-0.6 -0.8,-0.6 -1.6,-2 C -5.4,-14 -5.4,-30 0,-44 Z"></path></g>
    <g transform="rotate(240)"><path d="M0,-44 C 5.4,-30 5.4,-14 1.6,-2 C 0.8,-0.6 -0.8,-0.6 -1.6,-2 C -5.4,-14 -5.4,-30 0,-44 Z"></path></g>
    <g transform="rotate(300)"><path d="M0,-44 C 5.4,-30 5.4,-14 1.6,-2 C 0.8,-0.6 -0.8,-0.6 -1.6,-2 C -5.4,-14 -5.4,-30 0,-44 Z"></path></g>
    <circle r="3.2"></circle>
  </g>
</svg>